<svg width="38" height="39" viewBox="0 0 38 39" fill="none" xmlns="http://www.w3.org/2000/svg">
<rect y="0.0827637" width="38" height="38" rx="19" fill="#FE9033"/>
<g clip-path="url(#clip0_36_473)">
<path d="M17.0626 21.4686L16.7649 25.6566C17.1909 25.6566 17.3754 25.4736 17.5966 25.2538L19.5939 23.3451L23.7324 26.3758C24.4914 26.7988 25.0261 26.5761 25.2309 25.6776L27.9474 12.9486L27.9481 12.9478C28.1889 11.8258 27.5424 11.3871 26.8029 11.6623L10.8354 17.7756C9.74564 18.1986 9.76214 18.8061 10.6501 19.0813L14.7324 20.3511L24.2146 14.4178C24.6609 14.1223 25.0666 14.2858 24.7329 14.5813L17.0626 21.4686Z" fill="black"/>
</g>
<defs>
<clipPath id="clip0_36_473">
<rect width="18" height="18" fill="white" transform="translate(10 10.0828)"/>
</clipPath>
</defs>
</svg>
