<svg width="124" height="26" viewBox="0 0 124 26" fill="none" xmlns="http://www.w3.org/2000/svg">
<path fill-rule="evenodd" clip-rule="evenodd" d="M119.57 1.23371H51.3116V24.6814H119.57C121.009 24.6814 122.176 23.515 122.176 22.0761V3.83901C122.176 2.40014 121.009 1.23371 119.57 1.23371ZM50.2695 0.191589V25.7235H119.57C121.585 25.7235 123.218 24.0905 123.218 22.0761V3.83901C123.218 1.82459 121.585 0.191589 119.57 0.191589H50.2695Z" fill="#737373"/>
<path fill-rule="evenodd" clip-rule="evenodd" d="M4.40327 0.191345C2.38886 0.191345 0.755859 1.82435 0.755859 3.83876V22.0758C0.755859 24.0903 2.38886 25.7233 4.40328 25.7233H50.7776V0.191345H4.40327ZM15.4784 17.6763C15.7442 17.1006 15.8821 16.3298 15.8821 15.3639C15.8821 14.4565 15.7541 13.7443 15.498 13.2272C15.2322 12.7198 14.8973 12.3686 14.4837 12.1734C15.114 11.7148 15.439 10.8465 15.4587 9.56835C15.4685 9.12929 15.4291 8.67072 15.3306 8.21215C15.2322 7.75358 15.0549 7.33403 14.789 6.95352C14.5231 6.573 14.1686 6.27054 13.7156 6.03638C13.2626 5.80221 12.6915 5.68513 11.9825 5.68513H6.48751V19.7252H11.4802C11.9825 19.7252 12.4945 19.6764 13.0165 19.5788C13.5384 19.4813 14.0111 19.2861 14.4345 18.9837C14.858 18.691 15.2125 18.2519 15.4784 17.6763ZM12.6521 8.63169C12.7604 8.84634 12.8097 9.17807 12.8097 9.61713C12.8097 10.0659 12.7309 10.4367 12.5832 10.7099C12.4355 10.9733 12.1696 11.1099 11.7658 11.1099H9.1759V8.30972H12.0219C12.337 8.30972 12.5438 8.41704 12.6521 8.63169ZM13.0854 14.4565C13.1543 14.6809 13.1839 14.9931 13.1839 15.3834C13.1839 15.9493 13.0952 16.3493 12.9081 16.603C12.7309 16.8469 12.3961 16.9738 11.9234 16.9738H9.1759V13.6077H12.1499C12.268 13.6077 12.3862 13.6272 12.5044 13.6662C12.6324 13.7052 12.7407 13.7931 12.8392 13.9199C12.9377 14.0467 13.0263 14.2321 13.0854 14.4565ZM17.6547 19.7252H26.6554V16.9835H20.3332V13.715H26.0054V10.9928H20.3332V8.40728H26.4978V5.68513H17.6547V19.7252ZM32.2586 20.0179C35.4689 20.0179 37.0741 18.5349 37.0741 15.5785C37.0741 14.837 37.0052 14.2126 36.8378 13.715C36.6901 13.2174 36.4734 12.8076 36.2075 12.4856C35.9416 12.1637 35.6265 11.9197 35.272 11.7344C34.9175 11.549 34.5334 11.4026 34.1198 11.2953C33.7062 11.188 33.2828 11.0904 32.8396 11.0124C32.3965 10.9343 31.9632 10.8367 31.5299 10.7197C31.1163 10.6123 30.8307 10.4855 30.683 10.3391C30.5353 10.1928 30.4565 9.94886 30.4565 9.60737C30.4565 9.32443 30.4861 9.07075 30.5353 8.86586C30.5845 8.66096 30.683 8.48534 30.8209 8.3585C30.9588 8.23166 31.1459 8.13409 31.392 8.0658C31.6382 7.9975 31.9534 7.96823 32.3276 7.96823C32.8101 7.96823 33.1646 8.04628 33.3911 8.19263C33.6176 8.33899 33.7653 8.50485 33.8539 8.69023C33.9524 8.89513 34.0214 9.1488 34.041 9.43175C34.0706 9.7147 34.1001 9.97813 34.1395 10.2123H36.6999C36.6999 9.65616 36.6408 9.09026 36.5325 8.51461C36.4242 7.94871 36.2075 7.4316 35.8825 6.97303C35.5576 6.52422 35.1144 6.1437 34.5334 5.86075C33.9623 5.57781 33.204 5.43145 32.2783 5.43145C32.0124 5.43145 31.7072 5.45097 31.3822 5.48024C31.0572 5.50951 30.7323 5.57781 30.4073 5.67537C30.0823 5.77294 29.7672 5.90954 29.4521 6.09492C29.1468 6.2803 28.8711 6.51446 28.6347 6.80716C28.3984 7.09987 28.2014 7.46087 28.0636 7.88042C27.9159 8.29996 27.8469 8.79756 27.8469 9.37321C27.8469 10.1538 27.9257 10.7879 28.0833 11.266C28.2408 11.7441 28.4575 12.1344 28.743 12.4369C29.0286 12.7393 29.3634 12.9637 29.7377 13.1296C30.1119 13.2955 30.5255 13.4418 30.9686 13.5686C31.5398 13.7248 32.0518 13.8321 32.495 13.9004C32.9381 13.9687 33.3222 14.0565 33.6373 14.1736C33.913 14.2809 34.1198 14.4175 34.2478 14.5931C34.3759 14.7687 34.4448 15.0614 34.4448 15.4615C34.4448 16.2225 34.2774 16.7494 33.9524 17.0128C33.6274 17.2762 33.1055 17.4128 32.3768 17.4128C31.9337 17.4128 31.5693 17.3445 31.2837 17.2079C30.9981 17.0713 30.7717 16.886 30.5944 16.642C30.4171 16.3981 30.2891 16.1152 30.2202 15.7737C30.1513 15.442 30.102 15.0614 30.0823 14.6614H27.4727C27.4727 16.4859 27.8765 17.8324 28.6938 18.7105C29.5112 19.5788 30.7027 20.0179 32.2586 20.0179ZM43.6129 8.39753H46.8528L46.8429 5.68513H37.6847V8.39753H40.9245V19.7252H43.6129V8.39753Z" fill="#737373"/>
<path d="M64.2254 14.5638C64.1663 15.2956 64.0383 15.9883 63.8413 16.6518C63.6444 17.3152 63.3588 17.8909 62.9846 18.3787C62.6104 18.8763 62.118 19.2666 61.5173 19.5593C60.9166 19.852 60.1879 19.9984 59.3311 19.9984C58.3464 19.9984 57.5093 19.8325 56.82 19.5008C56.1307 19.169 55.5792 18.6812 55.1459 18.0568C54.7225 17.4226 54.4073 16.642 54.2202 15.7151C54.0233 14.7882 53.9248 13.7345 53.9248 12.5442C53.9248 11.4514 54.0331 10.4562 54.2399 9.57808C54.4467 8.69997 54.7717 7.94869 55.2148 7.32426C55.658 6.70958 56.2193 6.23149 56.8889 5.89976C57.5684 5.56803 58.3759 5.40216 59.3114 5.40216C60.2568 5.40216 61.0249 5.54851 61.6256 5.84122C62.2263 6.13392 62.699 6.51444 63.0634 6.98277C63.4179 7.45109 63.6739 7.98772 63.8315 8.58289C63.989 9.17805 64.0974 9.78297 64.1663 10.3781H61.6256C61.5665 10.0659 61.4976 9.76346 61.4188 9.48051C61.3499 9.19757 61.2317 8.94389 61.084 8.739C60.9363 8.5341 60.7295 8.36824 60.4734 8.2414C60.2174 8.11456 59.8727 8.05602 59.4395 8.05602C58.9175 8.05602 58.4744 8.14383 58.1199 8.30969C57.7654 8.47556 57.4699 8.74875 57.2533 9.12927C57.0366 9.50978 56.8791 10.0074 56.7806 10.6221C56.6821 11.2367 56.6427 11.9978 56.6427 12.9052C56.6427 13.8223 56.7117 14.5541 56.8397 15.1297C56.9677 15.6956 57.1548 16.1444 57.3912 16.4566C57.6275 16.7786 57.9131 16.9933 58.2577 17.1104C58.6024 17.2274 58.9766 17.286 59.4001 17.286C59.8334 17.286 60.1682 17.2177 60.4242 17.0908C60.6802 16.964 60.8772 16.7786 61.0249 16.5347C61.1726 16.2908 61.2908 16.0078 61.3696 15.6761C61.4582 15.3444 61.537 14.9736 61.6256 14.5541L64.2254 14.5638ZM75.0085 19.7252H72.3299V13.6662H68.2924V19.7252H65.6139V5.68511H68.2924V10.9245H72.3299V5.68511H75.0085V19.7252ZM86.3037 19.7252H83.4971L82.7585 16.8274H79.1937L78.465 19.7252H75.7569L79.6368 5.68511H82.2957L86.3037 19.7252ZM82.0889 14.2126L80.986 9.69516L79.8535 14.2126H82.0889ZM94.1719 19.7252L90.0753 11.1782V19.7252H87.3967V5.68511H90.026L94.1522 14.1735V5.68511H96.811V19.7252H94.1719ZM108.894 19.7252H106.718V18.3007C106.56 18.6422 106.363 18.9154 106.127 19.13C105.89 19.3447 105.634 19.5105 105.359 19.6374C105.083 19.7642 104.788 19.8423 104.492 19.891C104.197 19.9398 103.901 19.9593 103.616 19.9593C102.631 19.9593 101.804 19.774 101.144 19.3934C100.484 19.0129 99.9524 18.4958 99.5487 17.8324C99.1449 17.1689 98.8593 16.3786 98.6919 15.4712C98.5245 14.5638 98.4359 13.5881 98.4359 12.5442C98.4359 7.78283 100.238 5.40216 103.852 5.40216C104.748 5.40216 105.497 5.54851 106.117 5.83146C106.737 6.11441 107.24 6.50468 107.624 6.97301C108.008 7.45109 108.283 7.99748 108.451 8.6024C108.618 9.21708 108.707 9.85127 108.707 10.4952H105.969C105.969 10.2123 105.95 9.91957 105.91 9.61711C105.871 9.31465 105.782 9.05121 105.644 8.81705C105.506 8.58289 105.29 8.38775 105.004 8.2414C104.719 8.09504 104.335 8.01699 103.842 8.01699C103.35 8.01699 102.926 8.09504 102.592 8.26091C102.247 8.42678 101.971 8.68045 101.755 9.0317C101.538 9.38295 101.38 9.84152 101.282 10.3977C101.183 10.9538 101.134 11.627 101.134 12.4076C101.134 13.2662 101.174 14.0077 101.262 14.6224C101.351 15.237 101.498 15.7346 101.715 16.1054C101.932 16.4859 102.217 16.7591 102.572 16.9347C102.926 17.1104 103.379 17.1982 103.931 17.1982C104.246 17.1982 104.541 17.1494 104.827 17.0518C105.113 16.9542 105.359 16.7981 105.566 16.5932C105.772 16.3883 105.94 16.1152 106.058 15.7932C106.176 15.4712 106.225 15.0809 106.215 14.6224H103.694V12.0368H108.914V19.7252H108.894ZM119.559 19.7252H110.578V5.68511H119.401V8.40726H113.256V10.9928H118.909V13.715H113.256V16.9835H119.559V19.7252Z" fill="#737373"/>
</svg>
