<svg width="147" height="30" viewBox="0 0 147 30" fill="none" xmlns="http://www.w3.org/2000/svg">
<path d="M9.16289 12.624L14.8413 6.94792L20.522 12.6286L23.8241 9.32411L14.8413 0.338928L5.8584 9.3218L9.16289 12.624Z" fill="#737373"/>
<path d="M0.217773 14.9579L3.52106 11.6547L6.82435 14.9579L3.52106 18.2612L0.217773 14.9579Z" fill="#737373"/>
<path d="M9.1597 17.2909L14.8381 22.9693L20.5188 17.2886L23.8233 20.5885L23.8209 20.5908L14.8381 29.576L5.8552 20.5954L5.85059 20.5908L9.1597 17.2909Z" fill="#737373"/>
<path d="M22.8467 14.959L26.15 11.6558L29.4533 14.959L26.15 18.2623L22.8467 14.959Z" fill="#737373"/>
<path d="M18.1894 14.9561L14.8387 11.6031L12.3609 14.0809L12.0746 14.3649L11.488 14.9515L11.4834 14.9561L11.488 14.963L14.8387 18.3114L18.1894 14.9584L18.1917 14.9561H18.1894Z" fill="#737373"/>
<path d="M34.6084 7.42407H41.7947C43.5774 7.42407 44.926 7.88592 45.8405 8.80961C46.185 9.15081 46.4566 9.55846 46.6388 10.0078C46.821 10.4572 46.91 10.9389 46.9004 11.4236V11.4675C46.9066 11.8647 46.8513 12.2604 46.7364 12.6406C46.6341 12.9679 46.4856 13.279 46.2954 13.5643C46.118 13.8334 45.9034 14.0759 45.658 14.2848C45.4182 14.4912 45.1556 14.6694 44.8752 14.8159C45.6838 15.0975 46.4109 15.5733 46.9928 16.2014C47.5069 16.7864 47.764 17.5947 47.764 18.6261V18.67C47.7786 19.3142 47.6385 19.9524 47.3553 20.5312C47.0809 21.0645 46.6787 21.5215 46.1845 21.8613C45.6259 22.2359 45.0038 22.5058 44.3487 22.658C43.5703 22.8426 42.7724 22.9318 41.9725 22.9236H34.6084V7.42407ZM41.0742 13.6913C41.696 13.7213 42.3147 13.5876 42.8685 13.3034C43.0844 13.1772 43.2608 12.9931 43.3775 12.7719C43.4942 12.5507 43.5467 12.3012 43.5289 12.0518V12.0079C43.5404 11.778 43.4937 11.549 43.3932 11.3419C43.2927 11.1349 43.1416 10.9565 42.9539 10.8232C42.5706 10.5508 42.0172 10.4145 41.2936 10.4145H37.9314V13.6913H41.0742ZM41.9817 19.9377C42.6012 19.9725 43.2177 19.8307 43.7598 19.529C43.971 19.3933 44.142 19.2035 44.2549 18.9793C44.3678 18.7551 44.4185 18.5048 44.4018 18.2543V18.2104C44.4101 17.9724 44.36 17.7359 44.2557 17.5217C44.1514 17.3076 43.9962 17.1222 43.8037 16.9819C43.4065 16.674 42.7646 16.5201 41.8778 16.5201H37.9314V19.9377H41.9817Z" fill="#737373"/>
<path d="M52.0459 7.42316H55.4566V22.9273H52.0459V7.42316Z" fill="#737373"/>
<path d="M60.6162 7.42413H63.7614L71.0308 16.9658V7.42413H74.3976V22.9283H71.495L63.9877 13.0725V22.9283H60.6162V7.42413Z" fill="#737373"/>
<path d="M84.727 7.31232H87.8675L94.5112 22.9273H90.9503L89.5325 19.4496H82.9766L81.5587 22.9273H78.0811L84.727 7.31232ZM88.3155 16.4384L86.2511 11.4089L84.1959 16.4384H88.3155Z" fill="#737373"/>
<path d="M98.1982 7.42316H101.343L108.608 16.9649V7.42316H111.975V22.9273H109.072L101.565 13.0715V22.9273H98.1982V7.42316Z" fill="#737373"/>
<path d="M124.249 23.2003C123.162 23.2096 122.084 22.9991 121.081 22.5814C120.136 22.1913 119.279 21.616 118.56 20.8894C117.841 20.1629 117.275 19.2997 116.894 18.3509C116.493 17.3584 116.29 16.297 116.296 15.2265V15.1826C116.278 13.0725 117.09 11.0399 118.557 9.52274C119.279 8.78165 120.143 8.19412 121.097 7.79544C122.135 7.36538 123.25 7.15089 124.374 7.16502C125.038 7.16006 125.702 7.21961 126.355 7.34283C126.914 7.44852 127.46 7.6118 127.985 7.83008C128.462 8.03067 128.915 8.28312 129.336 8.58289C129.748 8.87524 130.134 9.20119 130.491 9.55738L128.323 12.0606C127.769 11.5494 127.147 11.1166 126.475 10.7743C125.815 10.4588 125.091 10.3007 124.36 10.3125C123.751 10.306 123.148 10.4291 122.591 10.6735C122.034 10.918 121.535 11.2782 121.127 11.7304C120.723 12.1813 120.407 12.7037 120.194 13.2706C119.972 13.8697 119.86 14.5043 119.864 15.1434V15.1873C119.862 15.8254 119.974 16.4589 120.194 17.0577C120.404 17.6267 120.717 18.152 121.118 18.6072C121.522 19.0649 122.02 19.4305 122.578 19.6791C123.135 19.9277 123.74 20.0536 124.351 20.0482C125.128 20.0727 125.9 19.9053 126.598 19.5609C127.262 19.199 127.876 18.7518 128.424 18.2308L130.595 20.4246C130.212 20.8406 129.797 21.2266 129.355 21.5792C128.92 21.9227 128.449 22.2163 127.949 22.4544C127.416 22.7052 126.854 22.8906 126.277 23.0063C125.609 23.1401 124.93 23.2051 124.249 23.2003Z" fill="#737373"/>
<path d="M134.62 7.42316H146.289V10.4575H137.975V13.6026H145.296V16.637H137.987V19.893H146.404V22.9273H134.627L134.62 7.42316Z" fill="#737373"/>
</svg>
