<svg width="122" height="26" viewBox="0 0 122 26" fill="none" xmlns="http://www.w3.org/2000/svg">
<path d="M25.7744 15.9848C24.0906 22.6632 17.2745 26.7455 10.4921 25.0749C3.75556 23.4056 -0.362186 16.6482 1.32296 9.92423C3.00675 3.24575 9.82289 -0.836513 16.6053 0.834111C23.3418 2.5034 27.4596 9.2608 25.7744 15.9848Z" fill="#737373"/>
<path d="M19.1013 11.1624C19.3509 9.49307 18.0719 8.59422 16.326 8.00837L16.8873 5.75055L15.5152 5.4108L14.9539 7.60442L13.8314 7.35697L14.3926 5.16335L13.0205 4.82361L12.4592 7.08143L11.5863 6.86474L9.69744 6.40061L9.32371 7.85321L10.3221 8.10066C10.5158 8.12255 10.6931 8.21916 10.8156 8.36959C10.938 8.52002 10.9958 8.71219 10.9765 8.90454L10.3221 11.4727C10.3532 11.4727 10.4166 11.5034 10.4786 11.5034C10.4476 11.5034 10.3842 11.4727 10.3221 11.4727L9.41816 15.06C9.35609 15.2152 9.16856 15.4934 8.79483 15.3998C8.79483 15.4305 7.79642 15.1523 7.79642 15.1523L7.12183 16.7307L8.92975 17.164L9.92815 17.4115L9.36689 19.6854L10.739 20.0251L11.3003 17.7673L12.3796 18.0455L11.8184 20.3033L13.1905 20.6431L13.7518 18.3692C16.1223 18.8026 17.8668 18.6474 18.617 16.514C19.2106 14.8153 18.5859 13.8388 17.3379 13.1741C18.2743 12.9868 18.93 12.4009 19.1162 11.1637L19.1013 11.1624ZM15.951 15.5844C15.5138 17.2831 12.6454 16.3575 11.7091 16.1408L12.4579 13.1112C13.3942 13.3279 16.3881 13.78 15.9658 15.5857L15.951 15.5844ZM16.3881 11.1624C16.0144 12.7086 13.5818 11.9355 12.8019 11.7188L13.4765 8.9674C14.2564 9.18409 16.7821 9.52383 16.3773 11.161L16.3881 11.1624Z" fill="#020710"/>
<path d="M37.8767 8.00576C38.9061 8.00576 39.7655 8.19302 40.5278 8.53142C41.2766 8.90193 41.9 9.36606 42.3681 9.98402C42.8673 10.602 43.21 11.3136 43.4475 12.1482C43.6766 13.0163 43.7918 13.91 43.7902 14.8073C43.7956 16.2178 43.5201 17.6156 42.9793 18.9203C42.4691 20.1757 41.7171 21.3206 40.7653 22.2909C39.8197 23.2508 38.6977 24.0226 37.4598 24.5648C36.1512 25.1284 34.7376 25.4127 33.311 25.3994H32.3126C31.8444 25.3994 31.2831 25.3379 30.6598 25.2443L28.6954 24.8738C28.0208 24.7186 27.3543 24.4725 26.731 24.205L32.2519 1.231L37.1791 0.457886L35.2147 8.62104C35.6518 8.43378 36.0566 8.2813 36.4937 8.18767C36.9398 8.06095 37.4018 7.99789 37.8659 8.00041L37.8767 8.00576ZM33.7292 21.5499C34.478 21.5499 35.1634 21.3627 35.8205 21.0243C36.4813 20.6543 37.0636 20.161 37.5353 19.5717C38.0035 18.9831 38.3772 18.3037 38.6578 17.5306C38.9385 16.7574 39.0626 15.9843 39.0626 15.1497C39.0626 14.1291 38.9061 13.3574 38.5634 12.7688C38.2207 12.2124 37.596 11.9034 36.6921 11.9034C36.3818 11.9034 36.0175 11.965 35.5385 12.0586C35.0595 12.1522 34.6345 12.3983 34.2595 12.7274L32.1682 21.3854C32.2923 21.4162 32.4178 21.4162 32.5109 21.4469C32.604 21.4777 32.6998 21.4777 32.8212 21.5085C32.9157 21.5085 33.0708 21.5392 33.195 21.5392H33.7252L33.7292 21.5499ZM48.9482 25.0276H44.226L48.2061 8.38028H52.9472L48.9482 25.0276ZM51.2256 6.35253C50.5828 6.36102 49.9561 6.15359 49.4474 5.764C48.9171 5.36273 48.6378 4.77421 48.6378 3.97167C48.6378 3.5383 48.7323 3.10626 48.9185 2.73442C49.0921 2.35318 49.3354 2.00715 49.6363 1.71386C49.9466 1.44126 50.2929 1.21178 50.6657 1.0317C51.0704 0.876544 51.4752 0.784251 51.9137 0.784251C52.5565 0.775762 53.1832 0.983192 53.6919 1.37278C54.2222 1.77405 54.5014 2.36258 54.5014 3.16512C54.5014 3.59849 54.407 4.03052 54.2208 4.40236C54.0472 4.78361 53.8039 5.12964 53.503 5.42292C53.2224 5.70114 52.8487 5.91782 52.4736 6.09171C52.0985 6.26559 51.6938 6.33916 51.2256 6.33916V6.35253ZM57.0892 4.24721L62.0489 3.47409L60.8319 8.39098H66.1342L65.1668 12.2699H59.8955L58.4924 18.083C58.3785 18.529 58.3053 18.9843 58.2738 19.4433C58.2441 19.8753 58.3048 20.2164 58.4303 20.5133C58.4913 20.6713 58.5834 20.8156 58.7013 20.9378C58.8192 21.0599 58.9606 21.1576 59.1171 21.2249C59.4597 21.3801 59.9266 21.4724 60.5202 21.4724C61.0194 21.4724 61.5186 21.4108 62.0043 21.3172C62.4937 21.2262 62.9737 21.0915 63.4385 20.9146L63.7812 24.5327C63.1074 24.7692 62.4199 24.9653 61.7223 25.1199C60.9735 25.3072 60.1006 25.3673 59.0712 25.3673C57.606 25.3673 56.4807 25.1507 55.6712 24.7186C54.8617 24.2866 54.2991 23.6981 53.9577 22.9557C53.6164 22.2134 53.4585 21.348 53.5206 20.3876C53.5516 19.4286 53.7095 18.408 53.9577 17.3112L57.0892 4.24721ZM65.9156 18.3786C65.9179 17.0002 66.1499 15.6317 66.6024 14.3284C67.0481 13.1095 67.7255 11.9866 68.5978 11.0206C69.4708 10.0616 70.5312 9.32192 71.7793 8.76282C73.0273 8.20372 74.3994 7.92818 75.928 7.92818C76.8954 7.92818 77.7359 8.02181 78.4861 8.2064C79.2362 8.39098 79.9203 8.60767 80.545 8.91798L78.9232 12.5963C78.4861 12.409 78.0503 12.2886 77.6145 12.1321C77.1464 11.977 76.5851 11.9155 75.9307 11.9155C74.3387 11.9155 73.1244 12.4411 72.1881 13.5232C71.2517 14.6053 70.7849 16.0271 70.7849 17.8516C70.7849 18.9216 71.0345 19.7991 71.5027 20.4491C71.9708 21.1179 72.8438 21.4389 74.0931 21.4389C74.6909 21.4416 75.2873 21.3792 75.8714 21.253C76.3936 21.1429 76.9051 20.9876 77.4 20.7889L77.7427 24.5608L75.7783 25.1787C75.0605 25.366 74.1862 25.457 73.1878 25.457C71.8791 25.457 70.7552 25.2697 69.8513 24.9005C68.99 24.5512 68.2137 24.0241 67.5738 23.3543C66.9755 22.711 66.5375 21.9378 66.2948 21.0965C66.0421 20.2115 65.9163 19.2957 65.921 18.3759L65.9156 18.3786ZM86.8741 25.4476C85.7515 25.4476 84.7531 25.2603 83.9423 24.9527C83.1004 24.613 82.4136 24.1502 81.8834 23.5309C81.3401 22.8945 80.9268 22.1594 80.6664 21.3667C80.3858 20.5321 80.2616 19.6038 80.2616 18.6153C80.2616 17.3473 80.4802 16.0793 80.885 14.8126C81.277 13.5741 81.9014 12.4201 82.7253 11.4112C83.5348 10.3906 84.5332 9.556 85.6881 8.93671C86.8417 8.28799 88.1841 7.97767 89.7114 7.97767C90.7103 7.97193 91.7025 8.13942 92.6432 8.47257C93.4851 8.81231 94.1719 9.27511 94.7021 9.8944C95.2454 10.5308 95.6587 11.2658 95.9191 12.0586C96.1997 12.8932 96.3238 13.8215 96.3238 14.8099C96.3238 16.078 96.1349 17.346 95.7302 18.6126C95.3254 19.8793 94.7318 21.0243 93.9519 22.0141C93.1721 23.0346 92.1737 23.8385 90.9891 24.4886C89.8045 25.1386 88.431 25.4476 86.8741 25.4476ZM89.2446 11.9048C88.5843 11.9049 87.9407 12.1103 87.4043 12.492C86.874 12.8932 86.4369 13.3881 86.0632 14.0074C85.6895 14.6267 85.4399 15.2754 85.2537 16.0178C85.0675 16.7601 84.973 17.4396 84.973 18.091C84.973 19.1423 85.1619 19.9636 85.4722 20.5655C85.8149 21.154 86.4396 21.4617 87.3125 21.4617C88.0303 21.4617 88.6213 21.2744 89.1528 20.8731C89.6844 20.4719 90.1202 19.977 90.4939 19.3577C90.8677 18.7384 91.1173 18.0897 91.3035 17.3473C91.4855 16.6709 91.5798 15.9742 91.5841 15.2741C91.5841 14.2228 91.4276 13.4015 91.0849 12.7996C90.7422 12.1977 90.1175 11.9034 89.2446 11.9034V11.9048ZM101.472 25.0129H96.7502L100.744 8.3776H105.485L101.472 25.0129ZM103.75 6.33782C103.107 6.34631 102.48 6.13888 101.972 5.74929C101.441 5.34802 101.162 4.75949 101.162 3.95695C101.162 3.52358 101.256 3.09155 101.443 2.71971C101.616 2.33847 101.86 1.99243 102.16 1.69914C102.471 1.42655 102.817 1.19706 103.19 1.01699C103.595 0.861832 103.999 0.769538 104.438 0.769538C105.081 0.761049 105.707 0.968479 106.216 1.35807C106.746 1.75934 107.026 2.34786 107.026 3.1504C107.026 3.58377 106.931 4.01581 106.745 4.38765C106.571 4.76889 106.328 5.11492 106.027 5.40821C105.717 5.68081 105.371 5.9103 104.998 6.09037C104.623 6.27763 104.218 6.33782 103.75 6.33782ZM108.893 9.11995L110.078 8.74945L111.543 8.37894C112.139 8.24664 112.743 8.1537 113.352 8.10073L115.629 7.97767C118.125 7.97767 119.839 8.68925 120.775 10.1418C121.712 11.5637 121.898 13.5433 121.274 16.0164L119.091 24.9835H114.35L116.442 16.2024L116.752 14.5946C116.814 14.0689 116.814 13.6356 116.721 13.2343C116.644 12.855 116.434 12.5151 116.127 12.2753C115.814 12.0278 115.347 11.9048 114.693 11.9048C114.07 11.9048 113.445 11.9663 112.822 12.092L109.719 24.9554H104.978L108.893 9.11995Z" fill="#737373"/>
</svg>
