<svg width="127" height="22" viewBox="0 0 127 22" fill="none" xmlns="http://www.w3.org/2000/svg">
<g clip-path="url(#clip0_15_798)">
<path d="M11.6005 1.14307H23.3321C23.325 1.29824 23.2714 1.44768 23.1783 1.57198C22.7811 2.25308 22.4237 2.96198 22.0335 3.64309C21.4815 4.62105 20.9652 5.61689 20.4042 6.59089C20.0488 7.29185 19.6476 7.97096 19.2684 8.66001C16.9888 8.66001 14.7092 8.66001 12.4296 8.66001C12.3104 8.66001 12.1923 8.66596 12.0731 8.67291C11.9738 8.93503 11.809 9.16438 11.676 9.41061C11.5022 9.69258 11.3612 9.99342 11.1895 10.2754C11.0078 10.6547 10.7566 10.9942 10.5739 11.3725C10.1966 12.0129 9.84415 12.6632 9.4748 13.3106C9.08958 13.9725 8.71295 14.6436 8.34493 15.3241C8.18919 15.5652 8.0457 15.8141 7.91502 16.0697C7.14357 17.4121 6.39694 18.7663 5.6245 20.1077C5.55898 20.2519 5.47267 20.3857 5.36834 20.5048C4.04784 20.4959 2.72733 20.5048 1.40683 20.5048C1.24419 20.5079 1.08251 20.5306 0.925293 20.5723C0.925293 20.207 1.16954 19.9141 1.33435 19.6073C1.53292 19.1952 1.79802 18.813 1.99758 18.4C3.5802 15.5683 5.14594 12.7268 6.72359 9.89314C7.08102 9.27756 7.38781 8.64908 7.74723 8.04543C8.196 7.25114 8.614 6.43898 9.08163 5.65363C9.23056 5.32499 9.43112 5.02415 9.59494 4.70346C10.1768 3.66791 10.7477 2.6264 11.3275 1.59085C11.3963 1.42912 11.4882 1.27828 11.6005 1.14307Z" fill="#737373"/>
<path d="M25.1974 5.31176C25.9788 3.94658 26.7334 2.5665 27.5257 1.20728H31.7632C31.825 1.2104 31.8862 1.22005 31.9459 1.23607C31.8049 1.44953 31.6868 1.67591 31.5627 1.89831C30.5407 3.73245 29.5217 5.56758 28.5056 7.40371C28.0787 8.15134 27.6816 8.91584 27.2487 9.65949L27.206 9.67438L27.198 9.76771C25.2057 13.342 23.22 16.9189 21.2409 20.4985C17.3509 20.5025 13.4605 20.5025 9.56982 20.4985C9.79123 20.0359 10.0533 19.594 10.2996 19.1443C11.4076 17.1069 12.5444 15.0875 13.6366 13.0501C16.0267 13.0461 18.4169 13.0461 20.807 13.0501C22.2834 10.4786 23.728 7.88724 25.1935 5.31176H25.1974Z" fill="#737373"/>
<path d="M68.9292 1.1543V20.7335H72.3218V6.96551L78.5103 16.0333L84.6491 6.75005V20.7335H88.141V1.1543H84.385L78.5351 10.1923L72.6197 1.1543H68.9292Z" fill="#737373"/>
<path d="M53.062 6.20435H55.2791V20.8987H53.062V6.20435Z" fill="#737373"/>
<path d="M52.8706 0.760498H55.4689V3.22577H52.8706V0.760498Z" fill="#737373"/>
<path d="M59.515 1.99341H61.8313V6.20413H66.3985V8.25637H61.8313V16.9856C61.8273 17.3219 61.9054 17.6542 62.0587 17.9536C62.4509 18.6983 63.5162 19.5819 66.3985 18.5493V20.4517C66.3985 20.4517 63.7674 21.941 61.3845 20.5847C61.3845 20.5847 60.201 20.0823 59.7036 18.3865C59.5744 17.9322 59.5109 17.4618 59.515 16.9896V8.2236L57.562 8.25637V6.20413H59.5309L59.515 1.99341Z" fill="#737373"/>
<path d="M91.7183 1.1543V20.8655H106.445V17.6884H95.3094V12.459H105.122V9.33149H95.2926V4.3513H106.33V1.1543H91.7183Z" fill="#737373"/>
<path d="M107.825 1.1543H112.02L116.835 8.07453L121.613 1.1543H125.808L118.957 10.7672L126.235 20.8487H121.816L116.852 13.4856L111.647 20.8655H107.453L114.626 10.8545L107.825 1.1543Z" fill="#737373"/>
<path d="M46.2758 10.6391C46.2758 10.6391 49.5195 9.41494 49.3209 5.89029C49.3209 5.89029 49.2941 2.50067 45.4776 1.45419C44.843 1.28417 44.1885 1.20002 43.5316 1.20399H34.3784L34.4032 20.7832H44.2574C44.2574 20.7832 50.0239 20.6591 50.43 15.521C50.43 15.521 50.843 11.9299 46.2758 10.6391ZM36.7444 3.22545H42.5864C47.1694 3.20957 47.0374 6.43636 47.0374 6.43636C47.1059 10.1179 42.9001 10.0434 42.9001 10.0434H36.7444V3.22545ZM43.893 18.7141H36.7444V11.8971H43.5792C48.1623 11.8802 48.0302 15.107 48.0302 15.107C48.0987 18.7885 43.893 18.7141 43.893 18.7141Z" fill="#737373"/>
</g>
<defs>
<clipPath id="clip0_15_798">
<rect width="125.307" height="20.3943" fill="white" transform="translate(0.925293 0.760254)"/>
</clipPath>
</defs>
</svg>
