<svg width="136" height="24" viewBox="0 0 136 24" fill="none" xmlns="http://www.w3.org/2000/svg">
<path d="M28.0704 6.69613C23.1836 6.69613 19.3673 10.374 19.3673 15.2964C19.3673 20.2188 23.0884 23.8634 28.0704 23.8634C33.0524 23.8634 36.8351 20.1577 36.8351 15.2686C36.8351 10.4074 33.114 6.69613 28.0704 6.69613ZM28.104 20.3188C25.3188 20.3188 23.2845 18.1743 23.2845 15.2964C23.2845 12.3908 25.2852 10.2463 28.0704 10.2463C30.8836 10.2463 32.9235 12.4241 32.9235 15.302C32.9235 18.1743 30.8836 20.3188 28.104 20.3188ZM37.9055 10.4407H40.332V23.5523H44.2157V7.0128H37.9055V10.4407ZM9.59379 10.2463C11.6337 10.2463 13.2532 11.4907 13.8641 13.3464H17.9775C17.2321 9.38511 13.9313 6.69613 9.62742 6.69613C4.74068 6.69613 0.924316 10.374 0.924316 15.2964C0.924316 20.2244 4.64541 23.8689 9.62742 23.8689C13.8305 23.8689 17.1985 21.18 17.9438 17.1854H13.8641C13.5998 18.0946 13.0426 18.8931 12.2776 19.4589C11.5126 20.0247 10.5818 20.3267 9.62742 20.3188C6.81418 20.3188 4.83595 18.1743 4.83595 15.2964C4.83595 12.3908 6.78056 10.2463 9.5994 10.2463H9.59379ZM111.672 13.7019L108.825 13.2852C107.469 13.0908 106.499 12.6463 106.499 11.5907C106.499 10.4407 107.76 9.86846 109.469 9.86846C111.352 9.86846 112.552 10.6629 112.804 11.9741H116.558C116.138 8.6462 113.549 6.69613 109.57 6.69613C105.462 6.69613 102.744 8.77953 102.744 11.7185C102.744 14.5297 104.521 16.1631 108.113 16.6742L110.96 17.0909C112.355 17.2798 113.129 17.8243 113.129 18.8465C113.129 20.1577 111.773 20.7022 109.895 20.7022C107.598 20.7022 106.303 19.7744 106.107 18.3688H102.291C102.649 21.5966 105.205 23.8689 109.856 23.8689C114.098 23.8689 116.917 21.9467 116.917 18.6577C116.917 15.7131 114.877 14.1797 111.672 13.7019ZM42.271 0.207017C41.9445 0.195631 41.6191 0.250349 41.3146 0.367828C41.0101 0.485306 40.733 0.663076 40.5001 0.89029C40.2673 1.1175 40.0836 1.38939 39.9602 1.68934C39.8369 1.9893 39.7766 2.31102 39.7828 2.63487C39.7828 4.04603 40.8476 5.0683 42.271 5.0683C42.5985 5.08049 42.925 5.02618 43.2306 4.90871C43.5361 4.79124 43.8142 4.61309 44.0477 4.38519C44.2813 4.1573 44.4654 3.88448 44.5887 3.58348C44.712 3.28249 44.772 2.95967 44.7649 2.63487C44.7712 2.31054 44.7107 1.98834 44.587 1.688C44.4633 1.38766 44.2791 1.11551 44.0457 0.888213C43.8122 0.660918 43.5344 0.483264 43.2292 0.366132C42.9241 0.249001 42.598 0.194857 42.271 0.207017ZM99.2475 12.6797C99.2475 9.09621 97.0507 6.70168 92.3881 6.70168C87.9889 6.70168 85.5288 8.90731 85.0468 12.2963H88.8968C89.0929 10.9852 90.1297 9.89624 92.3265 9.89624C94.2991 9.89624 95.2686 10.7574 95.2686 11.813C95.2686 13.1908 93.4921 13.5408 91.2897 13.763C88.314 14.0853 84.6209 15.1075 84.6209 18.9466C84.6209 21.9189 86.8625 23.8356 90.4155 23.8356C93.2007 23.8356 94.9492 22.6856 95.8234 20.8633C95.9523 22.4911 97.1796 23.5467 98.8944 23.5467H101.158V20.1244H99.2531V12.6797H99.2475ZM95.4367 16.8354C95.4367 19.041 93.4921 20.6688 91.1272 20.6688C89.6702 20.6688 88.4373 20.0577 88.4373 18.7799C88.4373 17.152 90.4155 16.7076 92.2256 16.5131C93.9741 16.3576 94.9436 15.9742 95.4311 15.2353L95.4367 16.8354ZM74.8194 6.69613C72.6562 6.69613 70.8405 7.59616 69.5516 9.09621V0.0458984H65.668V23.5467H69.4788V21.3744C70.7789 22.9411 72.617 23.8689 74.8194 23.8689C79.482 23.8689 83.0069 20.2244 83.0069 15.2964C83.0069 10.374 79.4203 6.69613 74.825 6.69613H74.8194ZM74.2422 20.3188C71.457 20.3188 69.4227 18.1743 69.4227 15.2964C69.4227 12.4241 71.4906 10.2463 74.2702 10.2463C77.0891 10.2463 79.0617 12.3908 79.0617 15.302C79.0617 18.1743 77.0218 20.3188 74.2422 20.3188ZM56.3821 6.69613C53.8602 6.69613 52.207 7.71839 51.2319 9.15733V7.01836H47.382V23.5467H51.2656V14.5631C51.2656 12.0352 52.8851 10.2463 55.2781 10.2463C57.5085 10.2463 58.9039 11.813 58.9039 14.0797V23.5467H62.7819V13.7964C62.7819 9.64068 60.6187 6.69613 56.3821 6.69613ZM135.422 14.752C135.422 10.024 131.925 6.69613 127.24 6.69613C122.252 6.69613 118.598 10.4074 118.598 15.2964C118.598 20.4466 122.51 23.8689 127.301 23.8689C131.348 23.8689 134.514 21.5022 135.326 18.1465H131.28C130.697 19.6132 129.274 20.4466 127.363 20.4466C124.869 20.4466 122.992 18.9132 122.577 16.2242H135.422V14.7575V14.752ZM122.801 13.4741C123.418 11.1741 125.166 10.0574 127.173 10.0574C129.369 10.0574 131.056 11.3018 131.443 13.4741H122.801Z" fill="#737373"/>
</svg>
