<svg width="131" height="29" viewBox="0 0 131 29" fill="none" xmlns="http://www.w3.org/2000/svg">
<path d="M45.1037 13.5183V13.5916C45.6657 13.836 46.0994 14.2086 46.4048 14.7095C46.7102 15.2104 46.863 15.7846 46.863 16.4321C46.863 17.434 46.5209 18.277 45.8367 18.9611C45.1525 19.6331 44.2851 19.969 43.2344 19.969H36.7837V7.69068H42.9779C43.9797 7.69068 44.8166 7.99611 45.4885 8.60698C46.1605 9.21784 46.4964 10.012 46.4964 10.9893C46.4964 12.1378 46.0322 12.9808 45.1037 13.5183ZM42.9229 9.43164H38.5613V12.8403H42.9046C43.4177 12.8403 43.8453 12.6814 44.1874 12.3638C44.5294 12.0339 44.7005 11.6246 44.7005 11.136C44.7005 10.635 44.5294 10.2258 44.1874 9.90812C43.8453 9.59047 43.4238 9.43164 42.9229 9.43164ZM38.5613 18.2098H43.2344C43.772 18.2098 44.2118 18.0448 44.5539 17.715C44.896 17.3851 45.067 16.9575 45.067 16.4321C45.067 15.8946 44.8838 15.4548 44.5172 15.1127C44.1629 14.7584 43.7109 14.5812 43.1611 14.5812H38.5613V18.2098Z" fill="white"/>
<path d="M49.1066 6.77438H50.8476V9.43164H49.1066V6.77438ZM49.1066 10.8977H50.8476V19.969H49.1066V10.8977Z" fill="white"/>
<path d="M60.1252 10.8977V12.5837H56.0019V17.3668C56.0019 17.9654 56.3073 18.2647 56.9182 18.2647H60.1252V19.969H56.57C55.8247 19.969 55.2505 19.7736 54.8473 19.3826C54.4564 18.9917 54.2609 18.4297 54.2609 17.6966V12.5837H52.6116V10.8977H54.2609V7.69068H56.0019V10.8977H60.1252Z" fill="white"/>
<path d="M70.6998 14.1964H68.8856C68.6901 13.6466 68.3419 13.1946 67.841 12.8403C67.3523 12.486 66.772 12.3088 66.1 12.3088C65.1837 12.3088 64.4385 12.6081 63.8643 13.2068C63.3023 13.8054 63.0213 14.5446 63.0213 15.4242C63.0213 16.3039 63.3023 17.0491 63.8643 17.66C64.4385 18.2586 65.1837 18.558 66.1 18.558C66.7598 18.558 67.3401 18.3808 67.841 18.0265C68.3541 17.6722 68.7023 17.2018 68.8856 16.6154H70.6998C70.4799 17.6661 69.9485 18.5335 69.1055 19.2177C68.2625 19.8896 67.2546 20.2256 66.0817 20.2256C64.6645 20.2256 63.51 19.7675 62.6181 18.8512C61.7262 17.9227 61.2803 16.7803 61.2803 15.4242C61.2803 14.0681 61.7262 12.9319 62.6181 12.0156C63.51 11.0993 64.6645 10.6412 66.0817 10.6412C67.2546 10.6412 68.2625 10.9771 69.1055 11.6491C69.9485 12.3088 70.4799 13.1579 70.6998 14.1964Z" fill="white"/>
<path d="M76.9649 20.2256C75.511 20.2256 74.3259 19.7675 73.4096 18.8512C72.5056 17.9227 72.0535 16.7803 72.0535 15.4242C72.0535 14.0681 72.5056 12.9319 73.4096 12.0156C74.3259 11.0993 75.511 10.6412 76.9649 10.6412C78.3943 10.6412 79.5549 11.0993 80.4468 12.0156C81.3509 12.9319 81.8029 14.0681 81.8029 15.4242C81.8029 16.7803 81.3509 17.9227 80.4468 18.8512C79.5427 19.7675 78.3821 20.2256 76.9649 20.2256ZM76.9649 18.558C77.8689 18.558 78.6081 18.2525 79.1823 17.6417C79.7687 17.0308 80.0619 16.2916 80.0619 15.4242C80.0619 14.5446 79.7687 13.8054 79.1823 13.2068C78.6081 12.6081 77.8689 12.3088 76.9649 12.3088C76.0363 12.3088 75.2789 12.6081 74.6924 13.2068C74.106 13.8054 73.8128 14.5446 73.8128 15.4242C73.8128 16.3039 74.106 17.0491 74.6924 17.66C75.2789 18.2586 76.0363 18.558 76.9649 18.558Z" fill="white"/>
<path d="M83.8435 6.77438H85.5845V9.43164H83.8435V6.77438ZM83.8435 10.8977H85.5845V19.969H83.8435V10.8977Z" fill="white"/>
<path d="M93.1395 10.6412C94.3001 10.6412 95.2348 11.0199 95.9434 11.7774C96.652 12.5226 97.0063 13.5183 97.0063 14.7645V19.969H95.2653V15.076C95.2653 14.2697 95.0393 13.61 94.5872 13.0968C94.1474 12.5837 93.5427 12.3271 92.773 12.3271C91.9422 12.3271 91.2641 12.6204 90.7388 13.2068C90.2257 13.781 89.9691 14.5262 89.9691 15.4425V19.969H88.2281V10.8977H89.9325V12.1256H90.0058C90.7877 11.136 91.8322 10.6412 93.1395 10.6412Z" fill="white"/>
<path d="M108.081 13.5183V13.5916C108.643 13.836 109.077 14.2086 109.382 14.7095C109.688 15.2104 109.84 15.7846 109.84 16.4321C109.84 17.434 109.498 18.277 108.814 18.9611C108.13 19.6331 107.263 19.969 106.212 19.969H99.7612V7.69068H105.955C106.957 7.69068 107.794 7.99611 108.466 8.60698C109.138 9.21784 109.474 10.012 109.474 10.9893C109.474 12.1378 109.01 12.9808 108.081 13.5183ZM105.9 9.43164H101.539V12.8403H105.882C106.395 12.8403 106.823 12.6814 107.165 12.3638C107.507 12.0339 107.678 11.6246 107.678 11.136C107.678 10.635 107.507 10.2258 107.165 9.90812C106.823 9.59047 106.401 9.43164 105.9 9.43164ZM101.539 18.2098H106.212C106.749 18.2098 107.189 18.0448 107.531 17.715C107.873 17.3851 108.044 16.9575 108.044 16.4321C108.044 15.8946 107.861 15.4548 107.495 15.1127C107.14 14.7584 106.688 14.5812 106.139 14.5812H101.539V18.2098Z" fill="#FE9033"/>
<path d="M116.301 20.2256C114.847 20.2256 113.662 19.7675 112.746 18.8512C111.842 17.9227 111.39 16.7803 111.39 15.4242C111.39 14.0681 111.842 12.9319 112.746 12.0156C113.662 11.0993 114.847 10.6412 116.301 10.6412C117.731 10.6412 118.891 11.0993 119.783 12.0156C120.687 12.9319 121.139 14.0681 121.139 15.4242C121.139 16.7803 120.687 17.9227 119.783 18.8512C118.879 19.7675 117.718 20.2256 116.301 20.2256ZM116.301 18.558C117.205 18.558 117.944 18.2525 118.519 17.6417C119.105 17.0308 119.398 16.2916 119.398 15.4242C119.398 14.5446 119.105 13.8054 118.519 13.2068C117.944 12.6081 117.205 12.3088 116.301 12.3088C115.373 12.3088 114.615 12.6081 114.029 13.2068C113.442 13.8054 113.149 14.5446 113.149 15.4242C113.149 16.3039 113.442 17.0491 114.029 17.66C114.615 18.2586 115.373 18.558 116.301 18.558Z" fill="#FE9033"/>
<path d="M127.371 15.3143L131 19.969H128.709L126.272 16.762L123.871 19.969H121.654L125.209 15.3876L121.727 10.8977H123.999L126.345 14.0131L128.691 10.8977H130.817L127.371 15.3143Z" fill="#FE9033"/>
<path d="M22.249 12.0685L19.9386 14.4999L13.0038 7.20196L19.073 0.815071L20.3715 2.18158L22.249 12.0685Z" fill="url(#paint0_linear_59_87)"/>
<path d="M10.6936 4.77041L13.004 7.20173L6.06914 14.4996L0 8.11273L1.29665 6.7482L10.6936 4.77041Z" fill="url(#paint1_linear_59_87)"/>
<path d="M26.0079 20.8866L24.7094 22.2531L15.3162 24.2309L13.0039 21.7976L19.9386 14.4999L26.0079 20.8866Z" fill="url(#paint2_linear_59_87)"/>
<path d="M13.0033 21.798L6.93419 28.1849L5.63754 26.8204L3.75815 16.9315L6.06851 14.5001L13.0033 21.798Z" fill="url(#paint3_linear_59_87)"/>
<defs>
<linearGradient id="paint0_linear_59_87" x1="-4.27981" y1="13.0213" x2="26.0079" y2="13.0213" gradientUnits="userSpaceOnUse">
<stop stop-color="#FF7D4D"/>
<stop offset="1" stop-color="#FE962D"/>
</linearGradient>
<linearGradient id="paint1_linear_59_87" x1="-4.27981" y1="13.0213" x2="26.0079" y2="13.0213" gradientUnits="userSpaceOnUse">
<stop stop-color="#FF7D4D"/>
<stop offset="1" stop-color="#FE962D"/>
</linearGradient>
<linearGradient id="paint2_linear_59_87" x1="-4.27981" y1="13.0213" x2="26.0079" y2="13.0213" gradientUnits="userSpaceOnUse">
<stop stop-color="#FF7D4D"/>
<stop offset="1" stop-color="#FE962D"/>
</linearGradient>
<linearGradient id="paint3_linear_59_87" x1="-4.27981" y1="13.0213" x2="26.0079" y2="13.0213" gradientUnits="userSpaceOnUse">
<stop stop-color="#FF7D4D"/>
<stop offset="1" stop-color="#FE962D"/>
</linearGradient>
</defs>
</svg>
