<svg width="117" height="25" viewBox="0 0 117 25" fill="none" xmlns="http://www.w3.org/2000/svg">
<path d="M39.5505 12.1074V12.1717C40.0433 12.386 40.4236 12.7127 40.6914 13.1519C40.9592 13.5912 41.0932 14.0947 41.0932 14.6625C41.0932 15.541 40.7932 16.2802 40.1933 16.8801C39.5933 17.4693 38.8327 17.7639 37.9114 17.7639H32.2549V6.9973H37.6864C38.5649 6.9973 39.2987 7.26512 39.8879 7.80078C40.4772 8.33643 40.7718 9.03278 40.7718 9.88982C40.7718 10.8968 40.3647 11.636 39.5505 12.1074ZM37.6382 8.52391H33.8136V11.5128H37.6221C38.0721 11.5128 38.447 11.3736 38.747 11.095C39.047 10.8058 39.1969 10.4469 39.1969 10.0184C39.1969 9.57914 39.047 9.22026 38.747 8.94172C38.447 8.66318 38.0774 8.52391 37.6382 8.52391ZM33.8136 16.2212H37.9114C38.3828 16.2212 38.7684 16.0766 39.0684 15.7874C39.3684 15.4981 39.5183 15.1231 39.5183 14.6625C39.5183 14.1911 39.3576 13.8054 39.0362 13.5055C38.7256 13.1948 38.3292 13.0395 37.8471 13.0395H33.8136V16.2212Z" fill="white"/>
<path d="M43.0605 6.19382H44.5872V8.52391H43.0605V6.19382ZM43.0605 9.80947H44.5872V17.7639H43.0605V9.80947Z" fill="white"/>
<path d="M52.7225 9.80947V11.2879H49.1069V15.482C49.1069 16.007 49.3747 16.2694 49.9103 16.2694H52.7225V17.7639H49.605C48.9515 17.7639 48.448 17.5925 48.0945 17.2497C47.7517 16.9069 47.5802 16.4141 47.5802 15.7713V11.2879H46.134V9.80947H47.5802V6.9973H49.1069V9.80947H52.7225Z" fill="white"/>
<path d="M61.9952 12.702H60.4043C60.2329 12.2199 59.9275 11.8235 59.4883 11.5128C59.0598 11.2022 58.5509 11.0468 57.9617 11.0468C57.1582 11.0468 56.5047 11.3093 56.0012 11.8342C55.5084 12.3592 55.262 13.0073 55.262 13.7787C55.262 14.55 55.5084 15.2035 56.0012 15.7391C56.5047 16.2641 57.1582 16.5266 57.9617 16.5266C58.5402 16.5266 59.0491 16.3712 59.4883 16.0605C59.9383 15.7499 60.2436 15.3374 60.4043 14.8232H61.9952C61.8023 15.7445 61.3363 16.5051 60.5971 17.1051C59.8579 17.6943 58.9741 17.9889 57.9456 17.9889C56.7029 17.9889 55.6905 17.5872 54.9085 16.7837C54.1264 15.9695 53.7354 14.9678 53.7354 13.7787C53.7354 12.5895 54.1264 11.5932 54.9085 10.7897C55.6905 9.98624 56.7029 9.5845 57.9456 9.5845C58.9741 9.5845 59.8579 9.87911 60.5971 10.4683C61.3363 11.0468 61.8023 11.7914 61.9952 12.702Z" fill="white"/>
<path d="M67.4888 17.9889C66.214 17.9889 65.1748 17.5872 64.3713 16.7837C63.5786 15.9695 63.1822 14.9678 63.1822 13.7787C63.1822 12.5895 63.5786 11.5932 64.3713 10.7897C65.1748 9.98624 66.214 9.5845 67.4888 9.5845C68.7422 9.5845 69.76 9.98624 70.542 10.7897C71.3348 11.5932 71.7312 12.5895 71.7312 13.7787C71.7312 14.9678 71.3348 15.9695 70.542 16.7837C69.7493 17.5872 68.7315 17.9889 67.4888 17.9889ZM67.4888 16.5266C68.2816 16.5266 68.9297 16.2587 69.4332 15.7231C69.9475 15.1874 70.2046 14.5393 70.2046 13.7787C70.2046 13.0073 69.9475 12.3592 69.4332 11.8342C68.9297 11.3093 68.2816 11.0468 67.4888 11.0468C66.6746 11.0468 66.0104 11.3093 65.4962 11.8342C64.982 12.3592 64.7249 13.0073 64.7249 13.7787C64.7249 14.55 64.982 15.2035 65.4962 15.7391C66.0104 16.2641 66.6746 16.5266 67.4888 16.5266Z" fill="white"/>
<path d="M73.5206 6.19382H75.0472V8.52391H73.5206V6.19382ZM73.5206 9.80947H75.0472V17.7639H73.5206V9.80947Z" fill="white"/>
<path d="M81.672 9.5845C82.6897 9.5845 83.5093 9.9166 84.1306 10.5808C84.752 11.2343 85.0627 12.1074 85.0627 13.2002V17.7639H83.5361V13.4733C83.5361 12.7663 83.3379 12.1878 82.9415 11.7378C82.5558 11.2879 82.0255 11.0629 81.3506 11.0629C80.6221 11.0629 80.0275 11.32 79.5669 11.8342C79.1169 12.3378 78.8919 12.9913 78.8919 13.7947V17.7639H77.3653V9.80947H78.8598V10.8861H78.9241C79.6097 10.0184 80.5257 9.5845 81.672 9.5845Z" fill="white"/>
<path d="M94.774 12.1074V12.1717C95.2668 12.386 95.6471 12.7127 95.9149 13.1519C96.1827 13.5912 96.3166 14.0947 96.3166 14.6625C96.3166 15.541 96.0167 16.2802 95.4167 16.8801C94.8168 17.4693 94.0562 17.7639 93.1349 17.7639H87.4784V6.9973H92.9099C93.7884 6.9973 94.5222 7.26512 95.1114 7.80078C95.7006 8.33643 95.9953 9.03278 95.9953 9.88982C95.9953 10.8968 95.5882 11.636 94.774 12.1074ZM92.8617 8.52391H89.0371V11.5128H92.8456C93.2956 11.5128 93.6705 11.3736 93.9705 11.095C94.2705 10.8058 94.4204 10.4469 94.4204 10.0184C94.4204 9.57914 94.2705 9.22026 93.9705 8.94172C93.6705 8.66318 93.3009 8.52391 92.8617 8.52391ZM89.0371 16.2212H93.1349C93.6062 16.2212 93.9919 16.0766 94.2919 15.7874C94.5918 15.4981 94.7418 15.1231 94.7418 14.6625C94.7418 14.1911 94.5811 13.8054 94.2597 13.5055C93.9491 13.1948 93.5527 13.0395 93.0706 13.0395H89.0371V16.2212Z" fill="#FE9033"/>
<path d="M101.982 17.9889C100.707 17.9889 99.6679 17.5872 98.8644 16.7837C98.0717 15.9695 97.6753 14.9678 97.6753 13.7787C97.6753 12.5895 98.0717 11.5932 98.8644 10.7897C99.6679 9.98624 100.707 9.5845 101.982 9.5845C103.235 9.5845 104.253 9.98624 105.035 10.7897C105.828 11.5932 106.224 12.5895 106.224 13.7787C106.224 14.9678 105.828 15.9695 105.035 16.7837C104.242 17.5872 103.225 17.9889 101.982 17.9889ZM101.982 16.5266C102.775 16.5266 103.423 16.2587 103.926 15.7231C104.441 15.1874 104.698 14.5393 104.698 13.7787C104.698 13.0073 104.441 12.3592 103.926 11.8342C103.423 11.3093 102.775 11.0468 101.982 11.0468C101.168 11.0468 100.504 11.3093 99.9893 11.8342C99.4751 12.3592 99.218 13.0073 99.218 13.7787C99.218 14.55 99.4751 15.2035 99.9893 15.7391C100.504 16.2641 101.168 16.5266 101.982 16.5266Z" fill="#FE9033"/>
<path d="M111.689 13.6822L114.871 17.7639H112.862L110.725 14.9517L108.62 17.7639H106.675L109.793 13.7465L106.74 9.80947H108.732L110.789 12.5413L112.846 9.80947H114.71L111.689 13.6822Z" fill="#FE9033"/>
<path d="M19.5096 10.8361L17.4837 12.9681L11.4027 6.56875L16.7246 0.968231L17.8633 2.16649L19.5096 10.8361Z" fill="url(#paint0_linear_96_153)"/>
<path d="M9.37697 4.43658L11.4029 6.56854L5.32189 12.9679L0 7.36738L1.137 6.17085L9.37697 4.43658Z" fill="url(#paint1_linear_96_153)"/>
<path d="M22.8057 18.5685L21.6671 19.7667L13.4304 21.501L11.4029 19.3673L17.4837 12.9681L22.8057 18.5685Z" fill="url(#paint2_linear_96_153)"/>
<path d="M11.4023 19.3677L6.08043 24.9682L4.94343 23.7717L3.29543 15.1003L5.32133 12.9684L11.4023 19.3677Z" fill="url(#paint3_linear_96_153)"/>
<defs>
<linearGradient id="paint0_linear_96_153" x1="-3.75287" y1="11.6716" x2="22.8057" y2="11.6716" gradientUnits="userSpaceOnUse">
<stop stop-color="#FF7D4D"/>
<stop offset="1" stop-color="#FE962D"/>
</linearGradient>
<linearGradient id="paint1_linear_96_153" x1="-3.75287" y1="11.6716" x2="22.8057" y2="11.6716" gradientUnits="userSpaceOnUse">
<stop stop-color="#FF7D4D"/>
<stop offset="1" stop-color="#FE962D"/>
</linearGradient>
<linearGradient id="paint2_linear_96_153" x1="-3.75287" y1="11.6716" x2="22.8057" y2="11.6716" gradientUnits="userSpaceOnUse">
<stop stop-color="#FF7D4D"/>
<stop offset="1" stop-color="#FE962D"/>
</linearGradient>
<linearGradient id="paint3_linear_96_153" x1="-3.75287" y1="11.6716" x2="22.8057" y2="11.6716" gradientUnits="userSpaceOnUse">
<stop stop-color="#FF7D4D"/>
<stop offset="1" stop-color="#FE962D"/>
</linearGradient>
</defs>
</svg>
