<svg viewBox="0 0 13 12" xmlns="http://www.w3.org/2000/svg"><path fill="#FFF" d="M0.227471 5.75311C2.11732 6.49969 3.55694 8.07654 4.12884 10.0264L4.38152 10.8879C4.45734 11.1406 4.7498 11.2325 4.93936 11.0659L6.60748 9.62429C6.78079 9.47496 7.02992 9.46347 7.21407 9.60706L10.2253 11.9275C10.4312 12.0883 10.7236 11.9677 10.7778 11.7035L12.9929 0.451777C13.0471 0.158854 12.7817 -0.0823769 12.5217 0.0267513L0.227471 5.05239C-0.0758235 5.17875 -0.0758235 5.63249 0.227471 5.75311ZM4.19737 6.30449L10.052 2.47926C10.1549 2.41034 10.2633 2.55967 10.1766 2.65157L5.34556 7.41301C5.17766 7.57957 5.06393 7.80357 5.03685 8.05054L4.87437 9.34285C4.85271 9.51516 4.62524 9.53239 4.57649 9.36583L3.94282 7.00521C3.867 6.74101 3.97532 6.45383 4.19737 6.30449Z" stroke="none"></path></svg>