<svg width="119" height="32" viewBox="0 0 119 32" fill="none" xmlns="http://www.w3.org/2000/svg">
<path d="M16.2578 31.9149C25.1475 31.9149 32.354 24.7705 32.354 15.9574C32.354 7.14439 25.1475 0 16.2578 0C7.36813 0 0.161621 7.14439 0.161621 15.9574C0.161621 24.7705 7.36813 31.9149 16.2578 31.9149Z" fill="#737373"/>
<path d="M17.9722 17.4302V17.4276C17.8609 17.4353 17.2864 17.4687 16.008 17.4687C14.9858 17.4687 14.269 17.4405 14.0154 17.4276V17.4302C10.0845 17.2583 7.15251 16.581 7.15251 15.7677C7.15251 14.957 10.0871 14.2772 14.0154 14.1053V16.7555C14.2716 16.7734 15.0091 16.817 16.0261 16.817C17.2476 16.817 17.8583 16.7657 17.9722 16.7555V14.1079C21.8953 14.2823 24.8195 14.9596 24.8195 15.7703C24.8195 16.581 21.8927 17.2583 17.9722 17.4328V17.4302ZM17.9722 13.8333V11.4628H23.4454V7.84802H8.54475V11.4628H14.018V13.8333C9.56953 14.036 6.22607 14.9083 6.22607 15.955C6.22607 17.0017 9.57212 17.874 14.018 18.0793V25.6783H17.9747V18.0793C22.4154 17.8766 25.7537 17.0043 25.7537 15.9576C25.7537 14.9134 22.4154 14.0386 17.9747 13.8359" fill="#020710"/>
<path d="M46.0254 8.83553V12.6684H49.7829V15.5444H45.9995V21.3758C45.9995 22.6637 46.7163 23.2922 47.767 23.2922C48.2923 23.2922 48.9005 23.128 49.3973 22.8817L50.3367 25.7295C49.3714 26.1117 48.5692 26.2759 47.547 26.3041C44.5918 26.4144 42.6587 24.7443 42.6587 21.3758V15.5444H40.1174V12.6684H42.6587V9.19213L46.0254 8.83553ZM110.806 12.4888L111.054 14.0487C112.105 12.3785 113.513 12.1322 114.895 12.1322C116.303 12.1322 117.656 12.6787 118.401 13.4175L116.882 16.3191C116.191 15.7445 115.557 15.4417 114.452 15.4417C112.685 15.4417 111.054 16.373 111.054 18.8641V25.9834H107.685V12.4837L110.806 12.4888ZM102.548 17.6635C102.328 15.9112 100.946 15.0338 99.0134 15.0338C97.1916 15.0338 95.6984 15.9112 95.2016 17.6635H102.548ZM95.1472 20.4291C95.3672 22.0992 96.8319 23.305 99.2075 23.305C100.45 23.305 102.08 22.8381 102.854 22.0454L105.007 24.1542C103.571 25.632 101.223 26.3452 99.1506 26.3452C94.4563 26.3452 91.664 23.4692 91.664 19.1438C91.664 15.0364 94.4821 12.0783 98.9021 12.0783C103.459 12.0783 106.306 14.8722 105.781 20.4291H95.1472ZM80.288 6.81903V14.3206C81.5043 12.7608 82.9949 12.2938 84.5424 12.2938C88.4086 12.2938 90.1217 14.8953 90.1217 18.8667V25.986H86.7524V18.8949C86.7524 16.4295 85.4533 15.3904 83.6573 15.3904C81.6673 15.3904 80.288 17.0606 80.288 19.0873V25.9886H76.9187V6.8216L80.288 6.81903ZM71.3394 8.6816V12.5145H75.0969V15.3904H71.3135V21.2218C71.3135 22.5097 72.0329 23.1383 73.081 23.1383C73.6063 23.1383 74.2144 22.9741 74.7113 22.7278L75.6507 25.5755C74.6854 25.9578 73.8832 26.122 72.861 26.1502C69.9057 26.2605 67.9726 24.5878 67.9726 21.2218V15.3904H65.4314V12.5145H67.9726V9.0382L71.3394 8.6816ZM62.031 17.6635C61.811 15.9112 60.4292 15.0338 58.4961 15.0338C56.6742 15.0338 55.1811 15.9112 54.6842 17.6635H62.031ZM54.6299 20.4291C54.8498 22.0992 56.3145 23.305 58.6901 23.305C59.9323 23.305 61.5626 22.8381 62.3364 22.0454L64.4894 24.1542C63.0532 25.632 60.7061 26.3452 58.6332 26.3452C53.9363 26.3452 51.1467 23.4692 51.1467 19.1438C51.1467 15.0364 53.9648 12.0783 58.3822 12.0783C62.9393 12.0783 65.7833 14.8722 65.2606 20.4291H54.6299Z" fill="#737373"/>
</svg>
