<svg width="24" height="24" viewBox="0 0 24 24" fill="none" xmlns="http://www.w3.org/2000/svg">
<path d="M23.6412 14.9029C22.0385 21.3315 15.5274 25.2438 9.09796 23.6407C2.67126 22.0381 -1.24108 15.5265 0.362312 9.09837C1.96429 2.66903 8.47546 -1.24361 14.9029 0.359081C21.3318 1.96177 25.2439 8.47405 23.641 14.903L23.6412 14.9029H23.6412Z" fill="#50AF95"/>
<path fill-rule="evenodd" clip-rule="evenodd" d="M13.5217 13.361C13.4369 13.3674 12.9985 13.3935 12.0206 13.3935C11.2428 13.3935 10.6905 13.3702 10.4968 13.361C7.49096 13.2288 5.24736 12.7055 5.24736 12.079C5.24736 11.4526 7.49096 10.93 10.4968 10.7957V12.8399C10.6934 12.854 11.2562 12.8873 12.034 12.8873C12.9674 12.8873 13.4348 12.8484 13.5189 12.8406V10.7971C16.5184 10.9307 18.757 11.454 18.757 12.079C18.757 12.7041 16.5191 13.2274 13.5189 13.3603L13.5217 13.361ZM13.5213 10.5853V8.75609H17.7073V5.96661H6.31044V8.75609H10.4957V10.5846C7.0939 10.7409 4.53564 11.4147 4.53564 12.2222C4.53564 13.0297 7.0939 13.7029 10.4957 13.8599V19.7216H13.5206V13.8577C16.9147 13.7015 19.4687 13.0283 19.4687 12.2215C19.4687 11.4147 16.9168 10.7416 13.5206 10.5846L13.5213 10.5853Z" fill="white"/>
</svg>
